mtllib box.mtl
o Cube
v  0.5 -0.5 -0.5
v  0.5 -0.5  0.5
v -0.5 -0.5  0.5
v -0.5 -0.5 -0.5
v  0.5  0.5 -0.5
v  0.5  0.5  0.5
v -0.5  0.5  0.5
v -0.5  0.5 -0.5
vn  0.0 -1.0  0.0
vn  0.0  1.0  0.0
vn  1.0  0.0  0.0
vn  0.0  0.0  1.0
vn -1.0  0.0 -0.0
vn  0.0  0.0 -1.0
vt 0.0 0.0
vt 0.0 1.0
vt 1.0 0.0
vt 1.0 1.0
usemtl thehead
s off
f 2/3/1 3/1/1 4/2/1
f 8/1/2 7/2/2 6/4/2
f 5/2/3 6/4/3 2/3/3
f 2/1/4 6/2/4 7/4/4
f 7/2/5 8/4/5 4/3/5
f 5/4/6 1/3/6 4/1/6
f 1/4/1 2/3/1 4/2/1
f 5/3/2 8/1/2 6/4/2
f 1/1/3 5/2/3 2/3/3
f 3/3/4 2/1/4 7/4/4
f 3/1/5 7/2/5 4/3/5
f 8/2/6 5/4/6 4/1/6
