# Blender v2.71 (sub 0) OBJ File: ''
# www.blender.org
mtllib drop.mtl
o Sphere_Sphere.002
v -0.382683 0.923880 0.000000
v -0.707107 0.707107 0.000000
v -0.923880 0.382683 0.000000
v -1.000000 -0.000000 0.000000
v -0.923880 -0.382684 0.000000
v -0.707107 -0.707107 0.000000
v -0.382683 -0.923880 0.000000
v -0.000000 -1.000000 0.000000
v -0.353553 0.923880 -0.146447
v -0.653281 0.707107 -0.270598
v -0.853553 0.382683 -0.353553
v -0.923880 -0.000000 -0.382683
v -0.853553 -0.382684 -0.353553
v -0.653281 -0.707107 -0.270598
v -0.353553 -0.923880 -0.146447
v -0.270598 0.923880 -0.270598
v -0.500000 0.707107 -0.500000
v -0.653281 0.382683 -0.653281
v -0.707107 -0.000000 -0.707107
v -0.653281 -0.382684 -0.653281
v -0.500000 -0.707107 -0.500000
v -0.270598 -0.923880 -0.270598
v -0.146447 0.923880 -0.353553
v -0.270598 0.707107 -0.653281
v -0.353553 0.382683 -0.853553
v -0.382683 -0.000000 -0.923879
v -0.353553 -0.382684 -0.853553
v -0.270598 -0.707107 -0.653281
v -0.146447 -0.923880 -0.353553
v -0.000000 0.923880 -0.382683
v -0.000000 0.707107 -0.707107
v -0.000000 0.382683 -0.923879
v -0.000000 -0.000000 -1.000000
v -0.000000 -0.382684 -0.923879
v -0.000000 -0.707107 -0.707107
v -0.000000 -0.923880 -0.382683
v -0.000000 1.000000 0.000000
v 0.146446 0.923880 -0.353553
v 0.270598 0.707107 -0.653281
v 0.353553 0.382683 -0.853553
v 0.382683 -0.000000 -0.923879
v 0.353553 -0.382684 -0.853553
v 0.270598 -0.707107 -0.653281
v 0.146446 -0.923880 -0.353553
v 0.270598 0.923880 -0.270598
v 0.500000 0.707107 -0.500000
v 0.653281 0.382683 -0.653281
v 0.707107 -0.000000 -0.707106
v 0.653281 -0.382684 -0.653281
v 0.500000 -0.707107 -0.500000
v 0.270598 -0.923880 -0.270598
v 0.353553 0.923880 -0.146446
v 0.653281 0.707107 -0.270598
v 0.853553 0.382683 -0.353553
v 0.923879 -0.000000 -0.382683
v 0.853553 -0.382684 -0.353553
v 0.653281 -0.707107 -0.270598
v 0.353553 -0.923880 -0.146446
v 0.382683 0.923880 0.000000
v 0.707106 0.707107 0.000000
v 0.923879 0.382683 0.000000
v 1.000000 -0.000000 0.000000
v 0.923879 -0.382684 0.000000
v 0.707106 -0.707107 0.000000
v 0.382683 -0.923880 0.000000
v 0.353553 0.923880 0.146447
v 0.653281 0.707107 0.270598
v 0.853553 0.382683 0.353554
v 0.923879 -0.000000 0.382684
v 0.853553 -0.382684 0.353554
v 0.653281 -0.707107 0.270598
v 0.353553 -0.923880 0.146447
v 0.270598 0.923880 0.270598
v 0.499999 0.707107 0.500000
v 0.653281 0.382683 0.653282
v 0.707106 -0.000000 0.707107
v 0.653281 -0.382684 0.653282
v 0.499999 -0.707107 0.500000
v 0.270598 -0.923880 0.270598
v 0.146446 0.923880 0.353553
v 0.270597 0.707107 0.653281
v 0.353553 0.382683 0.853553
v 0.382683 -0.000000 0.923879
v 0.353553 -0.382684 0.853553
v 0.270597 -0.707107 0.653281
v 0.146446 -0.923880 0.353553
v -0.000000 0.923880 0.382683
v -0.000000 0.707107 0.707106
v -0.000001 0.382683 0.923879
v -0.000001 -0.000000 1.000000
v -0.000001 -0.382684 0.923879
v -0.000000 -0.707107 0.707106
v -0.000000 -0.923880 0.382683
v -0.146447 0.923880 0.353553
v -0.270598 0.707107 0.653281
v -0.353554 0.382683 0.853553
v -0.382684 -0.000000 0.923879
v -0.353554 -0.382684 0.853553
v -0.270598 -0.707107 0.653281
v -0.146447 -0.923880 0.353553
v -0.270598 0.923880 0.270598
v -0.500000 0.707107 0.499999
v -0.653282 0.382683 0.653281
v -0.707107 -0.000000 0.707106
v -0.653282 -0.382684 0.653281
v -0.500000 -0.707107 0.499999
v -0.270598 -0.923880 0.270598
v -0.353553 0.923880 0.146446
v -0.653281 0.707107 0.270598
v -0.853553 0.382683 0.353553
v -0.923880 -0.000000 0.382683
v -0.853553 -0.382684 0.353553
v -0.653281 -0.707107 0.270598
v -0.353553 -0.923880 0.146446
vt 0.365956 0.187048
vt 0.434234 0.163011
vt 0.477222 0.213430
vt 0.274436 0.140312
vt 0.385779 0.102234
vt 0.150421 0.077072
vt 0.320113 0.019987
vt 0.277444 0.861328
vt 0.389770 0.898651
vt 0.318975 0.979822
vt 0.371879 0.816094
vt 0.442086 0.838689
vt 0.449025 0.777208
vt 0.483415 0.787927
vt 0.515783 0.153965
vt 0.516681 0.208782
vt 0.517876 0.088542
vt 0.520652 0.000000
vt 0.522215 0.911457
vt 0.524312 0.846034
vt 0.523418 0.791217
vt 0.598010 0.161308
vt 0.556684 0.212071
vt 0.650321 0.101346
vt 0.721109 0.020174
vt 0.519432 1.000000
vt 0.654315 0.897767
vt 0.605862 0.836990
vt 0.562877 0.786569
vt 0.668218 0.183902
vt 0.591075 0.222790
vt 0.762649 0.138666
vt 0.890559 0.077417
vt 0.765661 0.859691
vt 0.889673 0.922935
vt 0.674143 0.812953
vt 0.595719 0.774702
vt 0.715573 0.218239
vt 0.614571 0.239278
vt 0.837468 0.194730
vt 1.002753 0.162933
vt 0.839010 0.803108
vt 0.718607 0.777651
vt 0.616898 0.757453
vt 0.732791 0.258981
vt 0.623586 0.258985
vt 0.863143 0.260821
vt 1.040098 0.263520
vt 1.002263 0.837514
vt 0.862939 0.736801
vt 0.732402 0.736575
vt 0.623188 0.737491
vt 0.717321 0.299778
vt 0.616796 0.278871
vt 0.835680 0.326574
vt 0.996365 0.363488
vt 0.833673 0.671162
vt 0.996880 0.636759
vt 0.713497 0.696142
vt 0.613697 0.717898
vt 0.671840 0.334274
vt 0.595341 0.295888
vt 0.759633 0.381517
vt 0.877773 0.446884
vt 0.755970 0.616705
vt 0.878541 0.552923
vt 0.665135 0.662677
vt 0.590003 0.701670
vt 0.603937 0.357199
vt 0.562622 0.307472
vt 0.648199 0.416737
vt 0.702530 0.499492
vt 0.643513 0.582580
vt 0.595448 0.641248
vt 0.555853 0.691224
vt 0.524666 0.365449
vt 0.523678 0.311957
vt 0.523279 0.426962
vt 0.520055 0.499999
vt 0.516829 0.573035
vt 0.515441 0.634549
vt 0.516427 0.688041
vt 0.444658 0.358750
vt 0.484251 0.308774
vt 0.396596 0.417418
vt 0.337581 0.500505
vt 0.391909 0.583260
vt 0.436170 0.642797
vt 0.477482 0.692525
vt 0.374971 0.337322
vt 0.450101 0.298329
vt 0.284139 0.383295
vt 0.161573 0.447076
vt 0.280475 0.618478
vt 0.162339 0.553111
vt 0.368265 0.665722
vt 0.444762 0.704109
vt 0.326609 0.303858
vt 0.206436 0.328839
vt 0.043233 0.363243
vt 0.204425 0.673420
vt 0.043744 0.636503
vt 0.322783 0.700217
vt 0.423306 0.721125
vt 0.307702 0.263426
vt 0.416914 0.262508
vt 0.177167 0.263202
vt 0.000000 0.263092
vt 0.176959 0.739172
vt 0.000005 0.736471
vt 0.307310 0.741014
vt 0.416515 0.741011
vt 0.321495 0.222350
vt 0.423204 0.242547
vt 0.201091 0.196896
vt 0.037839 0.162493
vt 0.202629 0.805264
vt 0.037342 0.837057
vt 0.324526 0.781756
vt 0.425530 0.760719
vt 0.520216 0.260555
vt 0.444382 0.225298
vt 0.519886 0.739443
vt 0.426406 0.282101
vt 0.149529 0.922575
vt 0.719975 0.980017
vt 1.040109 0.736912
vn -0.718800 -0.695200 0.000000
vn -0.664100 -0.695200 -0.275100
vn -0.372400 -0.915200 -0.154200
vn -0.927300 -0.374300 0.000000
vn -0.856700 -0.374300 -0.354800
vn -1.000000 0.000000 0.000000
vn -0.923900 0.000000 -0.382700
vn -0.927300 0.374300 0.000000
vn -0.856700 0.374300 -0.354800
vn -0.718800 0.695200 0.000000
vn -0.664100 0.695200 -0.275100
vn -0.403100 0.915200 0.000000
vn -0.372400 0.915200 -0.154200
vn -0.508300 -0.695200 -0.508300
vn -0.285000 -0.915200 -0.285000
vn -0.655700 -0.374300 -0.655700
vn -0.707100 0.000000 -0.707100
vn -0.655700 0.374300 -0.655700
vn -0.508300 0.695200 -0.508300
vn -0.285000 0.915200 -0.285000
vn -0.275100 -0.695200 -0.664100
vn -0.154200 -0.915200 -0.372400
vn -0.354800 -0.374300 -0.856700
vn -0.382700 0.000000 -0.923900
vn -0.354800 0.374300 -0.856700
vn -0.275100 0.695200 -0.664100
vn -0.154200 0.915200 -0.372400
vn 0.000000 -0.695200 -0.718800
vn 0.000000 -0.915200 -0.403100
vn 0.000000 -0.374300 -0.927300
vn 0.000000 0.000000 -1.000000
vn 0.000000 0.374300 -0.927300
vn 0.000000 0.695200 -0.718800
vn 0.000000 0.915200 -0.403100
vn 0.275100 -0.695200 -0.664100
vn 0.154200 -0.915200 -0.372400
vn 0.354800 -0.374300 -0.856700
vn 0.382700 0.000000 -0.923900
vn 0.354800 0.374300 -0.856700
vn 0.275100 0.695200 -0.664100
vn 0.154200 0.915200 -0.372400
vn 0.508300 -0.695200 -0.508300
vn 0.285000 -0.915200 -0.285000
vn 0.655700 -0.374300 -0.655700
vn 0.707100 0.000000 -0.707100
vn 0.655700 0.374300 -0.655700
vn 0.508300 0.695200 -0.508300
vn 0.285000 0.915200 -0.285000
vn 0.664100 -0.695200 -0.275100
vn 0.372400 -0.915200 -0.154200
vn 0.856700 -0.374300 -0.354800
vn 0.923900 0.000000 -0.382700
vn 0.856700 0.374300 -0.354800
vn 0.664100 0.695200 -0.275100
vn 0.372400 0.915200 -0.154200
vn 0.718800 -0.695200 0.000000
vn 0.403100 -0.915200 0.000000
vn 0.927300 -0.374300 0.000000
vn 1.000000 0.000000 0.000000
vn 0.927300 0.374300 0.000000
vn 0.718800 0.695200 0.000000
vn 0.403100 0.915200 0.000000
vn 0.664100 -0.695200 0.275100
vn 0.372400 -0.915200 0.154200
vn 0.856700 -0.374300 0.354800
vn 0.923900 0.000000 0.382700
vn 0.856700 0.374300 0.354800
vn 0.664100 0.695200 0.275100
vn 0.372400 0.915200 0.154200
vn 0.508300 -0.695200 0.508300
vn 0.285000 -0.915200 0.285000
vn 0.655700 -0.374300 0.655700
vn 0.707100 0.000000 0.707100
vn 0.655700 0.374300 0.655700
vn 0.508300 0.695200 0.508300
vn 0.285000 0.915200 0.285000
vn 0.275100 -0.695200 0.664100
vn 0.154200 -0.915200 0.372400
vn 0.354800 -0.374300 0.856700
vn 0.382700 0.000000 0.923900
vn 0.354800 0.374300 0.856700
vn 0.275100 0.695200 0.664100
vn 0.154200 0.915200 0.372400
vn 0.000000 -0.695200 0.718800
vn 0.000000 -0.915200 0.403100
vn 0.000000 -0.374300 0.927300
vn 0.000000 0.000000 1.000000
vn 0.000000 0.374300 0.927300
vn 0.000000 0.695200 0.718800
vn 0.000000 0.915200 0.403100
vn -0.275100 -0.695200 0.664100
vn -0.354800 -0.374300 0.856700
vn -0.382700 0.000000 0.923900
vn -0.354800 0.374300 0.856700
vn -0.275100 0.695200 0.664100
vn -0.154200 0.915200 0.372400
vn -0.508300 -0.695200 0.508300
vn -0.285000 -0.915200 0.285000
vn -0.655700 -0.374300 0.655700
vn -0.707100 0.000000 0.707100
vn -0.655700 0.374300 0.655700
vn -0.508300 0.695200 0.508300
vn -0.285000 0.915200 0.285000
vn -0.664100 -0.695200 0.275100
vn -0.372400 -0.915200 0.154200
vn -0.856700 -0.374300 0.354800
vn -0.923900 0.000000 0.382700
vn -0.856700 0.374300 0.354800
vn -0.664100 0.695200 0.275100
vn -0.372400 0.915200 0.154200
vn 0.000000 -1.000000 0.000000
vn -0.403100 -0.915200 0.000000
vn 0.000000 1.000000 0.000000
vn -0.154200 -0.915200 0.372400
usemtl Material.001
s 1
f 6/1/1 14/2/2 15/3/3
f 5/4/4 13/5/5 14/2/2
f 4/6/6 12/7/7 13/5/5
f 3/8/8 11/9/9 12/10/7
f 2/11/10 10/12/11 11/9/9
f 1/13/12 9/14/13 10/12/11
f 14/2/2 21/15/14 22/16/15
f 14/2/2 13/5/5 20/17/16
f 13/5/5 12/7/7 19/18/17
f 12/10/7 11/9/9 18/19/18
f 10/12/11 17/20/19 18/19/18
f 9/14/13 16/21/20 17/20/19
f 21/15/14 28/22/21 29/23/22
f 21/15/14 20/17/16 27/24/23
f 20/17/16 19/18/17 26/25/24
f 19/26/17 18/19/18 25/27/25
f 17/20/19 24/28/26 25/27/25
f 17/20/19 16/21/20 23/29/27
f 28/22/21 35/30/28 36/31/29
f 27/24/23 34/32/30 35/30/28
f 26/25/24 33/33/31 34/32/30
f 25/27/25 32/34/32 33/35/31
f 24/28/26 31/36/33 32/34/32
f 23/29/27 30/37/34 31/36/33
f 35/30/28 43/38/35 44/39/36
f 34/32/30 42/40/37 43/38/35
f 33/33/31 41/41/38 42/40/37
f 33/35/31 32/34/32 40/42/39
f 32/34/32 31/36/33 39/43/40
f 30/37/34 38/44/41 39/43/40
f 43/38/35 50/45/42 51/46/43
f 42/40/37 49/47/44 50/45/42
f 41/41/38 48/48/45 49/47/44
f 41/49/38 40/42/39 47/50/46
f 39/43/40 46/51/47 47/50/46
f 38/44/41 45/52/48 46/51/47
f 50/45/42 57/53/49 58/54/50
f 49/47/44 56/55/51 57/53/49
f 48/48/45 55/56/52 56/55/51
f 47/50/46 54/57/53 55/58/52
f 46/51/47 53/59/54 54/57/53
f 45/52/48 52/60/55 53/59/54
f 57/53/49 64/61/56 65/62/57
f 56/55/51 63/63/58 64/61/56
f 55/56/52 62/64/59 63/63/58
f 54/57/53 61/65/60 62/66/59
f 53/59/54 60/67/61 61/65/60
f 53/59/54 52/60/55 59/68/62
f 64/61/56 71/69/63 72/70/64
f 63/63/58 70/71/65 71/69/63
f 62/64/59 69/72/66 70/71/65
f 62/66/59 61/65/60 68/73/67
f 60/67/61 67/74/68 68/73/67
f 59/68/62 66/75/69 67/74/68
f 71/69/63 78/76/70 79/77/71
f 70/71/65 77/78/72 78/76/70
f 69/72/66 76/79/73 77/78/72
f 68/73/67 75/80/74 76/79/73
f 68/73/67 67/74/68 74/81/75
f 66/75/69 73/82/76 74/81/75
f 78/76/70 85/83/77 86/84/78
f 77/78/72 84/85/79 85/83/77
f 76/79/73 83/86/80 84/85/79
f 75/80/74 82/87/81 83/86/80
f 75/80/74 74/81/75 81/88/82
f 73/82/76 80/89/83 81/88/82
f 85/83/77 92/90/84 93/91/85
f 85/83/77 84/85/79 91/92/86
f 84/85/79 83/86/80 90/93/87
f 82/87/81 89/94/88 90/95/87
f 81/88/82 88/96/89 89/94/88
f 80/89/83 87/97/90 88/96/89
f 93/91/85 92/90/84 99/98/91
f 91/92/86 98/99/92 99/98/91
f 91/92/86 90/93/87 97/100/93
f 89/94/88 96/101/94 97/102/93
f 88/96/89 95/103/95 96/101/94
f 87/97/90 94/104/96 95/103/95
f 99/98/91 106/105/97 107/106/98
f 99/98/91 98/99/92 105/107/99
f 98/99/92 97/100/93 104/108/100
f 96/101/94 103/109/101 104/110/100
f 96/101/94 95/103/95 102/111/102
f 94/104/96 101/112/103 102/111/102
f 106/105/97 113/113/104 114/114/105
f 105/107/99 112/115/106 113/113/104
f 105/107/99 104/108/100 111/116/107
f 103/109/101 110/117/108 111/118/107
f 103/109/101 102/111/102 109/119/109
f 101/112/103 108/120/110 109/119/109
f 8/121/111 7/122/112 15/3/3
f 1/13/12 37/123/113 9/14/13
f 8/121/111 15/3/3 22/16/15
f 9/14/13 37/123/113 16/21/20
f 8/121/111 22/16/15 29/23/22
f 16/21/20 37/123/113 23/29/27
f 8/121/111 29/23/22 36/31/29
f 23/29/27 37/123/113 30/37/34
f 8/121/111 36/31/29 44/39/36
f 30/37/34 37/123/113 38/44/41
f 8/121/111 44/39/36 51/46/43
f 38/44/41 37/123/113 45/52/48
f 8/121/111 51/46/43 58/54/50
f 45/52/48 37/123/113 52/60/55
f 8/121/111 58/54/50 65/62/57
f 52/60/55 37/123/113 59/68/62
f 8/121/111 65/62/57 72/70/64
f 59/68/62 37/123/113 66/75/69
f 8/121/111 72/70/64 79/77/71
f 66/75/69 37/123/113 73/82/76
f 8/121/111 79/77/71 86/84/78
f 73/82/76 37/123/113 80/89/83
f 8/121/111 86/84/78 93/91/85
f 80/89/83 37/123/113 87/97/90
f 8/121/111 93/91/85 100/124/114
f 87/97/90 37/123/113 94/104/96
f 8/121/111 100/124/114 107/106/98
f 94/104/96 37/123/113 101/112/103
f 8/121/111 107/106/98 114/114/105
f 101/112/103 37/123/113 108/120/110
f 8/121/111 114/114/105 7/122/112
f 114/114/105 113/113/104 6/1/1
f 113/113/104 112/115/106 5/4/4
f 111/116/107 4/6/6 5/4/4
f 110/117/108 3/8/8 4/125/6
f 109/119/109 2/11/10 3/8/8
f 108/120/110 1/13/12 2/11/10
f 108/120/110 37/123/113 1/13/12
f 7/122/112 6/1/1 15/3/3
f 6/1/1 5/4/4 14/2/2
f 5/4/4 4/6/6 13/5/5
f 4/125/6 3/8/8 12/10/7
f 3/8/8 2/11/10 11/9/9
f 2/11/10 1/13/12 10/12/11
f 15/3/3 14/2/2 22/16/15
f 21/15/14 14/2/2 20/17/16
f 20/17/16 13/5/5 19/18/17
f 19/26/17 12/10/7 18/19/18
f 11/9/9 10/12/11 18/19/18
f 10/12/11 9/14/13 17/20/19
f 22/16/15 21/15/14 29/23/22
f 28/22/21 21/15/14 27/24/23
f 27/24/23 20/17/16 26/25/24
f 26/126/24 19/26/17 25/27/25
f 18/19/18 17/20/19 25/27/25
f 24/28/26 17/20/19 23/29/27
f 29/23/22 28/22/21 36/31/29
f 28/22/21 27/24/23 35/30/28
f 27/24/23 26/25/24 34/32/30
f 26/126/24 25/27/25 33/35/31
f 25/27/25 24/28/26 32/34/32
f 24/28/26 23/29/27 31/36/33
f 36/31/29 35/30/28 44/39/36
f 35/30/28 34/32/30 43/38/35
f 34/32/30 33/33/31 42/40/37
f 41/49/38 33/35/31 40/42/39
f 40/42/39 32/34/32 39/43/40
f 31/36/33 30/37/34 39/43/40
f 44/39/36 43/38/35 51/46/43
f 43/38/35 42/40/37 50/45/42
f 42/40/37 41/41/38 49/47/44
f 48/127/45 41/49/38 47/50/46
f 40/42/39 39/43/40 47/50/46
f 39/43/40 38/44/41 46/51/47
f 51/46/43 50/45/42 58/54/50
f 50/45/42 49/47/44 57/53/49
f 49/47/44 48/48/45 56/55/51
f 48/127/45 47/50/46 55/58/52
f 47/50/46 46/51/47 54/57/53
f 46/51/47 45/52/48 53/59/54
f 58/54/50 57/53/49 65/62/57
f 57/53/49 56/55/51 64/61/56
f 56/55/51 55/56/52 63/63/58
f 55/58/52 54/57/53 62/66/59
f 54/57/53 53/59/54 61/65/60
f 60/67/61 53/59/54 59/68/62
f 65/62/57 64/61/56 72/70/64
f 64/61/56 63/63/58 71/69/63
f 63/63/58 62/64/59 70/71/65
f 69/72/66 62/66/59 68/73/67
f 61/65/60 60/67/61 68/73/67
f 60/67/61 59/68/62 67/74/68
f 72/70/64 71/69/63 79/77/71
f 71/69/63 70/71/65 78/76/70
f 70/71/65 69/72/66 77/78/72
f 69/72/66 68/73/67 76/79/73
f 75/80/74 68/73/67 74/81/75
f 67/74/68 66/75/69 74/81/75
f 79/77/71 78/76/70 86/84/78
f 78/76/70 77/78/72 85/83/77
f 77/78/72 76/79/73 84/85/79
f 76/79/73 75/80/74 83/86/80
f 82/87/81 75/80/74 81/88/82
f 74/81/75 73/82/76 81/88/82
f 86/84/78 85/83/77 93/91/85
f 92/90/84 85/83/77 91/92/86
f 91/92/86 84/85/79 90/93/87
f 83/86/80 82/87/81 90/95/87
f 82/87/81 81/88/82 89/94/88
f 81/88/82 80/89/83 88/96/89
f 100/124/114 93/91/85 99/98/91
f 92/90/84 91/92/86 99/98/91
f 98/99/92 91/92/86 97/100/93
f 90/95/87 89/94/88 97/102/93
f 89/94/88 88/96/89 96/101/94
f 88/96/89 87/97/90 95/103/95
f 100/124/114 99/98/91 107/106/98
f 106/105/97 99/98/91 105/107/99
f 105/107/99 98/99/92 104/108/100
f 97/102/93 96/101/94 104/110/100
f 103/109/101 96/101/94 102/111/102
f 95/103/95 94/104/96 102/111/102
f 107/106/98 106/105/97 114/114/105
f 106/105/97 105/107/99 113/113/104
f 112/115/106 105/107/99 111/116/107
f 104/110/100 103/109/101 111/118/107
f 110/117/108 103/109/101 109/119/109
f 102/111/102 101/112/103 109/119/109
f 7/122/112 114/114/105 6/1/1
f 6/1/1 113/113/104 5/4/4
f 112/115/106 111/116/107 5/4/4
f 111/118/107 110/117/108 4/125/6
f 110/117/108 109/119/109 3/8/8
f 109/119/109 108/120/110 2/11/10
